<mxfile host="app.diagrams.net" modified="2021-06-19T00:15:41.629Z" agent="5.0 (Windows)" etag="ed-xnhJR6COeUYTmzdby" version="14.8.0" type="github">
  <diagram name="Page-1" id="5f0bae14-7c28-e335-631c-24af17079c00">
    <mxGraphModel dx="2062" dy="1100" grid="1" gridSize="10" guides="1" tooltips="1" connect="1" arrows="1" fold="1" page="1" pageScale="1" pageWidth="600" pageHeight="900" background="none" math="0" shadow="0">
      <root>
        <mxCell id="0" />
        <mxCell id="1" parent="0" />
        <mxCell id="6rfoHBk_m1fRkbhfTu-Y-2" value="&lt;p style=&quot;line-height: 100%&quot;&gt;&lt;/p&gt;&lt;br&gt;&lt;p&gt;&lt;/p&gt;" style="rounded=0;whiteSpace=wrap;html=1;fontStyle=1" vertex="1" parent="1">
          <mxGeometry x="140" y="120" width="890" height="640" as="geometry" />
        </mxCell>
        <mxCell id="6rfoHBk_m1fRkbhfTu-Y-19" style="edgeStyle=orthogonalEdgeStyle;rounded=0;orthogonalLoop=1;jettySize=auto;html=1;dashed=1;endArrow=open;endFill=0;strokeWidth=2;" edge="1" parent="1" source="39150e848f15840c-4" target="6rfoHBk_m1fRkbhfTu-Y-9">
          <mxGeometry relative="1" as="geometry" />
        </mxCell>
        <mxCell id="39150e848f15840c-4" value="&lt;div style=&quot;font-size: 24px&quot;&gt;&lt;font style=&quot;font-size: 24px&quot;&gt;«subsystem&lt;/font&gt;&lt;font style=&quot;font-size: 24px&quot;&gt;»&lt;/font&gt;&lt;/div&gt;&lt;div&gt;&lt;font style=&quot;font-size: 12px&quot;&gt;&lt;br&gt;&lt;/font&gt;&lt;/div&gt;&lt;div style=&quot;font-size: 24px&quot;&gt;&lt;b&gt;&lt;font style=&quot;font-size: 24px&quot;&gt;Regelungs-&lt;/font&gt;&lt;/b&gt;&lt;/div&gt;&lt;div style=&quot;font-size: 24px&quot;&gt;&lt;b&gt;&lt;font style=&quot;font-size: 24px&quot;&gt;und Steuereinheit&lt;/font&gt;&lt;/b&gt;&lt;/div&gt;" style="html=1;rounded=0;shadow=0;comic=0;labelBackgroundColor=none;strokeWidth=1;fontFamily=Verdana;fontSize=12;align=center;" parent="1" vertex="1">
          <mxGeometry x="210" y="250" width="320" height="160" as="geometry" />
        </mxCell>
        <mxCell id="6rfoHBk_m1fRkbhfTu-Y-3" value="&lt;div style=&quot;font-size: 24px&quot;&gt;&lt;font style=&quot;font-size: 24px&quot;&gt;&lt;font style=&quot;font-size: 24px&quot;&gt;«&lt;/font&gt;system&lt;/font&gt;&lt;font style=&quot;font-size: 24px&quot;&gt;»&lt;/font&gt;&lt;/div&gt;&lt;div style=&quot;font-size: 24px&quot;&gt;&lt;font style=&quot;font-size: 24px&quot;&gt;&lt;b&gt;ApolloAuto&lt;/b&gt;&lt;br&gt;&lt;/font&gt;&lt;/div&gt;" style="text;html=1;align=center;verticalAlign=middle;resizable=0;points=[];autosize=1;strokeColor=none;" vertex="1" parent="1">
          <mxGeometry x="515" y="140" width="140" height="30" as="geometry" />
        </mxCell>
        <mxCell id="6rfoHBk_m1fRkbhfTu-Y-18" style="edgeStyle=orthogonalEdgeStyle;rounded=0;orthogonalLoop=1;jettySize=auto;html=1;entryX=0.5;entryY=1;entryDx=0;entryDy=0;strokeWidth=2;dashed=1;endArrow=open;endFill=0;" edge="1" parent="1" source="6rfoHBk_m1fRkbhfTu-Y-7" target="39150e848f15840c-4">
          <mxGeometry relative="1" as="geometry" />
        </mxCell>
        <mxCell id="6rfoHBk_m1fRkbhfTu-Y-7" value="&lt;div style=&quot;font-size: 24px&quot;&gt;&lt;font style=&quot;font-size: 24px&quot;&gt;«subsystem&lt;/font&gt;&lt;font style=&quot;font-size: 24px&quot;&gt;»&lt;/font&gt;&lt;/div&gt;&lt;div&gt;&lt;br&gt;&lt;/div&gt;&lt;div&gt;&lt;font size=&quot;1&quot;&gt;&lt;b style=&quot;font-size: 24px&quot;&gt;Lokalisierung und&lt;/b&gt;&lt;/font&gt;&lt;/div&gt;&lt;div&gt;&lt;font size=&quot;1&quot;&gt;&lt;b style=&quot;font-size: 24px&quot;&gt;Standortverarbeitung&lt;/b&gt;&lt;/font&gt;&lt;br&gt;&lt;/div&gt;" style="html=1;rounded=0;shadow=0;comic=0;labelBackgroundColor=none;strokeWidth=1;fontFamily=Verdana;fontSize=12;align=center;" vertex="1" parent="1">
          <mxGeometry x="210" y="540" width="320" height="160" as="geometry" />
        </mxCell>
        <mxCell id="6rfoHBk_m1fRkbhfTu-Y-11" value="" style="shape=module;align=left;spacingLeft=20;align=center;verticalAlign=top;" vertex="1" parent="1">
          <mxGeometry x="475" y="550" width="40" height="50" as="geometry" />
        </mxCell>
        <mxCell id="6rfoHBk_m1fRkbhfTu-Y-15" value="" style="shape=module;align=left;spacingLeft=20;align=center;verticalAlign=top;" vertex="1" parent="1">
          <mxGeometry x="475" y="260" width="40" height="50" as="geometry" />
        </mxCell>
        <mxCell id="6rfoHBk_m1fRkbhfTu-Y-16" value="" style="shape=module;align=left;spacingLeft=20;align=center;verticalAlign=top;" vertex="1" parent="1">
          <mxGeometry x="910" y="390" width="40" height="50" as="geometry" />
        </mxCell>
        <mxCell id="6rfoHBk_m1fRkbhfTu-Y-17" value="" style="shape=module;align=left;spacingLeft=20;align=center;verticalAlign=top;" vertex="1" parent="1">
          <mxGeometry x="980" y="130" width="40" height="50" as="geometry" />
        </mxCell>
        <mxCell id="6rfoHBk_m1fRkbhfTu-Y-22" value="" style="rounded=0;whiteSpace=wrap;html=1;" vertex="1" parent="1">
          <mxGeometry x="1010" y="425" width="30" height="30" as="geometry" />
        </mxCell>
        <mxCell id="6rfoHBk_m1fRkbhfTu-Y-30" style="edgeStyle=orthogonalEdgeStyle;rounded=0;orthogonalLoop=1;jettySize=auto;html=1;entryX=0.5;entryY=0;entryDx=0;entryDy=0;dashed=1;endArrow=open;endFill=0;strokeWidth=2;" edge="1" parent="1" source="6rfoHBk_m1fRkbhfTu-Y-9" target="6rfoHBk_m1fRkbhfTu-Y-28">
          <mxGeometry relative="1" as="geometry" />
        </mxCell>
        <mxCell id="6rfoHBk_m1fRkbhfTu-Y-34" style="edgeStyle=orthogonalEdgeStyle;rounded=0;orthogonalLoop=1;jettySize=auto;html=1;entryX=0.5;entryY=1;entryDx=0;entryDy=0;dashed=1;endArrow=open;endFill=0;strokeWidth=2;" edge="1" parent="1" source="6rfoHBk_m1fRkbhfTu-Y-9" target="6rfoHBk_m1fRkbhfTu-Y-33">
          <mxGeometry relative="1" as="geometry" />
        </mxCell>
        <mxCell id="6rfoHBk_m1fRkbhfTu-Y-9" value="&lt;div style=&quot;font-size: 24px&quot;&gt;&lt;font style=&quot;font-size: 24px&quot;&gt;«subsystem&lt;/font&gt;&lt;font style=&quot;font-size: 24px&quot;&gt;»&lt;/font&gt;&lt;/div&gt;&lt;div&gt;&lt;br&gt;&lt;/div&gt;&lt;div style=&quot;font-size: 24px&quot;&gt;&lt;font style=&quot;font-size: 24px&quot;&gt;&lt;b&gt;Überwachungs- und&lt;/b&gt;&lt;/font&gt;&lt;/div&gt;&lt;div style=&quot;font-size: 24px&quot;&gt;&lt;font style=&quot;font-size: 24px&quot;&gt;&lt;b&gt; Kontrolleinheit&lt;/b&gt;&lt;/font&gt;&lt;/div&gt;" style="html=1;rounded=0;shadow=0;comic=0;labelBackgroundColor=none;strokeWidth=1;fontFamily=Verdana;fontSize=12;align=center;" vertex="1" parent="1">
          <mxGeometry x="640" y="360" width="320" height="160" as="geometry" />
        </mxCell>
        <mxCell id="6rfoHBk_m1fRkbhfTu-Y-20" style="edgeStyle=orthogonalEdgeStyle;rounded=0;orthogonalLoop=1;jettySize=auto;html=1;exitX=1;exitY=0.5;exitDx=0;exitDy=0;dashed=1;endArrow=open;endFill=0;strokeWidth=2;" edge="1" parent="1" source="6rfoHBk_m1fRkbhfTu-Y-9">
          <mxGeometry relative="1" as="geometry">
            <mxPoint x="1010" y="440" as="targetPoint" />
            <Array as="points">
              <mxPoint x="970" y="440" />
              <mxPoint x="970" y="440" />
            </Array>
          </mxGeometry>
        </mxCell>
        <mxCell id="6rfoHBk_m1fRkbhfTu-Y-32" style="edgeStyle=orthogonalEdgeStyle;rounded=0;orthogonalLoop=1;jettySize=auto;html=1;entryX=0.5;entryY=1;entryDx=0;entryDy=0;dashed=1;endArrow=open;endFill=0;strokeWidth=2;" edge="1" parent="1" source="6rfoHBk_m1fRkbhfTu-Y-28" target="6rfoHBk_m1fRkbhfTu-Y-9">
          <mxGeometry relative="1" as="geometry" />
        </mxCell>
        <mxCell id="6rfoHBk_m1fRkbhfTu-Y-28" value="" style="rounded=0;whiteSpace=wrap;html=1;" vertex="1" parent="1">
          <mxGeometry x="785" y="740" width="30" height="30" as="geometry" />
        </mxCell>
        <mxCell id="6rfoHBk_m1fRkbhfTu-Y-31" value="&lt;b&gt;&lt;font style=&quot;font-size: 16px&quot;&gt;Monitor&lt;/font&gt;&lt;/b&gt;" style="text;html=1;strokeColor=none;fillColor=none;align=center;verticalAlign=middle;whiteSpace=wrap;rounded=0;" vertex="1" parent="1">
          <mxGeometry x="830" y="730" width="40" height="20" as="geometry" />
        </mxCell>
        <mxCell id="6rfoHBk_m1fRkbhfTu-Y-33" value="" style="rounded=0;whiteSpace=wrap;html=1;" vertex="1" parent="1">
          <mxGeometry x="785" y="100" width="30" height="30" as="geometry" />
        </mxCell>
        <mxCell id="6rfoHBk_m1fRkbhfTu-Y-35" value="&lt;b&gt;&lt;font style=&quot;font-size: 16px&quot;&gt;Dreamview HMI&lt;/font&gt;&lt;/b&gt;" style="text;html=1;strokeColor=none;fillColor=none;align=center;verticalAlign=middle;whiteSpace=wrap;rounded=0;" vertex="1" parent="1">
          <mxGeometry x="815" y="100" width="150" height="20" as="geometry" />
        </mxCell>
        <mxCell id="6rfoHBk_m1fRkbhfTu-Y-38" value="" style="shape=module;align=left;spacingLeft=20;align=center;verticalAlign=top;" vertex="1" parent="1">
          <mxGeometry x="910" y="370" width="40" height="50" as="geometry" />
        </mxCell>
        <mxCell id="6rfoHBk_m1fRkbhfTu-Y-27" value="&lt;b&gt;&lt;font style=&quot;font-size: 16px&quot;&gt;Fahrzeugschnittstelle&lt;/font&gt;&lt;/b&gt;" style="text;html=1;strokeColor=none;align=center;verticalAlign=middle;whiteSpace=wrap;rounded=0;fillColor=#ffffff;" vertex="1" parent="1">
          <mxGeometry x="1010" y="400" width="70" height="20" as="geometry" />
        </mxCell>
      </root>
    </mxGraphModel>
  </diagram>
</mxfile>
